<mxfile host="app.diagrams.net" agent="Mozilla/5.0 (Macintosh; Intel Mac OS X 10_15_7) AppleWebKit/537.36 (KHTML, like Gecko) Chrome/130.0.0.0 Safari/537.36" version="24.8.3">
  <diagram name="Page-1" id="qfFQFANZ3cxbehaUHMaQ">
    <mxGraphModel dx="2074" dy="1145" grid="1" gridSize="10" guides="1" tooltips="1" connect="1" arrows="1" fold="1" page="1" pageScale="1" pageWidth="850" pageHeight="1100" math="0" shadow="0">
      <root>
        <mxCell id="0" />
        <mxCell id="1" parent="0" />
        <mxCell id="QAS3m9SSEOW1L_kFOe4u-1" value="" style="shape=image;verticalLabelPosition=bottom;labelBackgroundColor=default;verticalAlign=top;aspect=fixed;imageAspect=0;image=data:image/png,iVBORw0KGgoAAAANSUhEUgAAADAAAAAwCAYAAABXAvmHAAAH70lEQVR4nMyZe2xT1x3Hf+fc6+d17CROnNR5k4QkpDRAWKAdgwGjm8K6DYpY1ZYCZTAE07qiVQU2qauyh1aYKq1slVjpoINoiKGWRwGhTKwUikoSwivEJGkSQmI75Nrx275+3DNdi7As2L6+Tkj5/MEl936Pz/e8fudFwyRQwajyFmWmLa5JY+oqNarqQqWyWEvjbABQAwACAJ8rHGHNXPBOtzfQ0eLytFx2eM61urw9E80bpZqwQCnXrzVmr12Vq3/xCZWiVuoPEQCwBLj2E0P2xgNm9sNuX8Caig/JBahkFMbtpQU7n9Wnv0pjpEol0/EQQrjTw46PdvcMNtz0+u9KSZt0AbQUlu0ozX9zbZ5hO40Rk5JTEcI88R0YvPe733YP7PLyfCiZNEkVoE6nmfHX6mmNhSpFzYRdJkG/n2vZcKP7hWtu31diWkpM8Ioxe+UHM8s+zZDThZPmUASdjDaufkK/ptfHtZi8/t5EWpzoY0N5/tZdVcVHaIw0k+5SBCWmMt4oMW5XoMSdJG4YbSjL37qp4Ik9KYepCdLl9X++os20giMkoS5mAYRu89Oi3D8/KnNiRM1fMdXfC4Y9YtqHKlgYsJ/MqfiSxjilbhPmecdNj7+5y+vvigBvg+hAwxnlalVZpUY1V0nhrMkyD+NbQAiVe6tLGqWaJ0BC51nnkUOW4X1nba7PfBE+EkunwAgvztQ9/XJe9oZlet1LCCH5RMzD+BZ4Z3rhr9cV5DRIMX/V6Tm9o7P/tVaXt0tKupo0dem7VSV/eTJN/V1I0TyMDaPCDPunqmmH8bhaiYdQ6+/1m1/bfLP3F4NcyC4lU4GhYGjkoHn4UJZMFmQoTK+4Ylou1TyMbYHDW5g9SyxlW4lL3H+YJ4HXb/WsPDxkPy01w1gwGGMvz/OppI0WoCgH9B0H6LtUkFZ5jxdBuFcbPwUh/A5T36p9Zvbj1C1PHtGJbONzeK2MRiqsjoBmdQ8ov2m9v158mH9Z2D8+LuZhtAV6G6mWfAOuHfsh2J0GvhNFQAL/C1T3uKDpmUs3a1yRSPBr8BoTPKMI8vKzUe34D/IyN6St7wQqx/fg3a7ugR2Pk3kBvHQOWgxx1htUehDS1nSB/CkWbKFg1z+H7Mem3KEIdO10VJdIgGQEmOUDcGJAdpAjIguTGJQs2fnWhBzGwW253sx2nDxFV5eg6mQSNPX6TqWSUcnSnb9JJZ0YI31fnBAKgItyULGYWNjyfdkBVx+FkVRR6vKivnG6BrLFxFY73HF6ITwlzpJEmV5ogPvzgFpMzIVA8lJhCojOtgl3ZI850QlKKIBPTKmQQ+aUWJJGdMmOHR4YFlPmZkCRjom//fyacAv/4DtDpE9MiRBSzKuCWVNiK0k412C04un2XtI+qwyWiCUon62rP9vibJGa0UjP+XNS9JhWUrrCuoViOs5p7heedGsnufzSsgRCgmG3ZyZc+Ebuy2j/qQYS4iXNxm376kUrZyy64gUzazeeuS6m8w13moQn/ncbORdv6TwYUcMmxwI4yRWBTKsoz1xU+CMpZlIhp+q5+mR0bsv1K8IT3+qDwQGWtI4XXOQMsN6xEDoj6Q/e5T0/4/eUWpbUljMVMKXA2TXPv5qMdsTS/DmMzgOHmvhDox+EDrLXWwFvuOeBm/y/V3mGqjJ/3axHsrYRyH9myxpFWu50MV3Qw5q8fc3R4BMtwN9OkI9CYeJz8DJ43TUf/u6vABLn3Df7WwVvZi0rXTHZ5tWGKmPxsl/tTkbLmk4eHf1/9FTC6QU/U6wzvqdbUDe2y8QEIaSrMfyQs3mv+O+4uifsXGhZjUE7e93xMwqNoUxMS4Dwt49t2xh0me0w9ljlwleKq6ql5ZsRFj9WQRjRGXONq7EMj7husZfjxICkYAxVBbPWHz+jzip9aFcYC7f1xqm+poY9o38/KEDEzbllWgViyjKTC3sIUZrKrHrtbMN8f7+zOWQP2KQYRzJM5f6gYsP0dT87qqYWTUPJLMsIgOnYz9f62a6BB78z9jtmKFn1H5ZdVhgYSbMuIRB2tVuPsE39HzjbzJ/xXCTm0aKAqiSjIHO+cZV+YfFmeYYyOmApfyWohrYAjugS5jPSc/5w2776F8a+e2ikMtP1VRVvLbyMqdQOd0mEd/oGnM0Bs7sTOGLnMU8Qj7RyA1OgLtLVUGpZKYqxB0fhdFBZtwLNxQ5CkVDA3rzn6Sd9bJclYQEEsr5TsrL4J3OOTPlym1CgYH8MctezgMZYE3bitz/dttJ8ae9D51Exr5h8PY4OpKBZTYV++ZRecCACEeYG8DIz0L6nAN1fAFvbDjb0nn37/VhJ4t6RuW/ca6YYitWU678H8c5dHhG8YhDCzBWg/DNg+FrT+x1HN/0S4hyIJLzkc1271xwcCdzUzspZnkx4nUwIdoO1vfGdrv17tpHY1w1RkqpZpiKzatrWukap0SlVSIT3DBxu3zJ0vPMfYlrRa1aBkM3Psud7P0QKGceUpM97lK3h7XU0db/7xfcdlwb/k4xect9W5muNxtXVOzNqc9cjCoueaCRLwOJpsXzc8bbtwt2TIGHLkfLglGep9VlLil/Rf7vwRXmGem6s2C4GH4ywzmvWT9jzffudrUMXpRgfZVKiizJfm6edaVjMTEuvUxXoZsiymGKaobOF4XM/Dz/Phe1Bm3+As3q7fHccVz0m20XPbVsrz4Xjj9Ak+G8AAAD//1VeChIknbSVAAAAAElFTkSuQmCC;" vertex="1" parent="1">
          <mxGeometry x="40" y="70" width="48" height="48" as="geometry" />
        </mxCell>
        <mxCell id="QAS3m9SSEOW1L_kFOe4u-2" value="&lt;font style=&quot;font-size: 20px;&quot;&gt;Google Release Please&lt;/font&gt;" style="text;html=1;align=center;verticalAlign=middle;resizable=0;points=[];autosize=1;strokeColor=none;fillColor=none;" vertex="1" parent="1">
          <mxGeometry x="120" y="74" width="230" height="40" as="geometry" />
        </mxCell>
        <mxCell id="QAS3m9SSEOW1L_kFOe4u-3" value="&lt;font style=&quot;font-size: 20px;&quot;&gt;Legend&lt;/font&gt;" style="text;html=1;align=center;verticalAlign=middle;resizable=0;points=[];autosize=1;strokeColor=none;fillColor=none;" vertex="1" parent="1">
          <mxGeometry x="20" y="20" width="90" height="40" as="geometry" />
        </mxCell>
      </root>
    </mxGraphModel>
  </diagram>
</mxfile>
